<svg width="18" height="18" viewBox="0 0 18 18" fill="none" xmlns="http://www.w3.org/2000/svg">
<path d="M9 4.5C9.495 4.5 9.9 4.905 9.9 5.4V9C9.9 9.495 9.495 9.9 9 9.9C8.505 9.9 8.1 9.495 8.1 9V5.4C8.1 4.905 8.505 4.5 9 4.5ZM8.991 0C4.023 0 0 4.032 0 9C0 13.968 4.023 18 8.991 18C13.968 18 18 13.968 18 9C18 4.032 13.968 0 8.991 0ZM9 16.2C5.022 16.2 1.8 12.978 1.8 9C1.8 5.022 5.022 1.8 9 1.8C12.978 1.8 16.2 5.022 16.2 9C16.2 12.978 12.978 16.2 9 16.2ZM9.9 13.5H8.1V11.7H9.9V13.5Z" fill="#767676"/>
</svg>
