<svg width="180" height="180" viewBox="0 0 180 180" fill="none" xmlns="http://www.w3.org/2000/svg">
<rect x="0.5" y="0.5" width="179" height="179" rx="11.5" stroke="#4B4B4B" stroke-dasharray="4 4"/>
<path d="M75.25 62.25H104.75" stroke="#4B4B4B" stroke-width="2" stroke-linecap="round"/>
<path d="M90.25 47.25L90.25 76.75" stroke="#4B4B4B" stroke-width="2" stroke-linecap="round"/>
<path d="M53.0234 122.062V142.945H51.1719V122.062H53.0234ZM41.9375 123.68C45.0312 123.703 47.2578 126.516 47.2578 130.945C47.2578 135.375 45.0312 138.188 41.9375 138.188C38.8203 138.188 36.6172 135.375 36.6172 130.945C36.6172 126.516 38.8203 123.703 41.9375 123.68ZM41.9375 125.32C39.8516 125.344 38.3984 127.547 38.3984 130.945C38.3984 134.344 39.8516 136.547 41.9375 136.547C44.0234 136.547 45.4766 134.344 45.4766 130.945C45.4766 127.547 44.0234 125.344 41.9375 125.32ZM67.4375 124.125V137.672H57.8047V124.125H67.4375ZM59.6094 125.602V136.172H65.6328V125.602H59.6094ZM73.7656 122.062V142.945H71.9141V122.062H73.7656ZM84.7812 128.461C84.7812 132 87.3594 135.586 90.4297 136.922L89.3984 138.375C86.9609 137.262 84.8516 134.859 83.8906 131.977C82.9062 135.035 80.8086 137.695 78.4297 138.891L77.3281 137.438C80.3047 136.008 82.9062 132.07 82.9297 128.461V125.742H78.0078V124.219H89.75V125.742H84.7812V128.461ZM94.5078 122.062V142.898H92.6562V122.062H94.5078ZM123.102 131.977V133.523H104.094V131.977H123.102ZM120.875 128.484V129.984H106.508V122.906H120.734V124.453H108.312V128.484H120.875ZM113.586 135.352C118.062 135.352 120.734 136.711 120.758 139.102C120.734 141.516 118.062 142.852 113.586 142.852C109.086 142.852 106.391 141.516 106.391 139.102C106.391 136.711 109.086 135.352 113.586 135.352ZM113.586 136.781C110.234 136.805 108.242 137.648 108.266 139.102C108.242 140.578 110.234 141.398 113.586 141.398C116.891 141.398 118.906 140.578 118.906 139.102C118.906 137.648 116.891 136.805 113.586 136.781ZM143.891 133.547V135.07H124.812V133.547H133.438V131.344H127.297V126.258H139.578V124.102H127.227V122.602H141.43V127.641H129.125V129.867H141.875V131.344H135.242V133.547H143.891ZM141.547 136.664V142.711H139.695V138.164H126.945V136.664H141.547Z" fill="#4B4B4B"/>
</svg>
