<svg width="48" height="48" viewBox="0 0 48 48" fill="none" xmlns="http://www.w3.org/2000/svg">
<circle cx="24" cy="24" r="23.5" stroke="#F2F2F2"/>
<g clip-path="url(#clip0_12600_11577)">
<path d="M21.3086 23.393H22.4605L21.8846 21.7969L21.3086 23.393Z" fill="#331D1E"/>
<path d="M24 15C18.4769 15 14 18.4426 14 22.6899C14 25.4358 15.8721 27.8478 18.6875 29.2057C18.5346 29.7205 17.7029 32.5198 17.6702 32.7402C17.6702 32.7402 17.65 32.9053 17.7596 32.9681C17.7963 32.9862 17.8364 32.9967 17.8774 32.9991C17.9184 33.0015 17.9594 32.9958 17.9981 32.9822C18.3135 32.939 21.6519 30.6555 22.2288 30.2626C22.8157 30.3421 23.4075 30.3812 24 30.3798C29.5231 30.3798 34 26.9372 34 22.6899C34 18.4426 29.5231 15 24 15ZM19.051 21.4961C19.0385 22.5839 19.0606 23.728 19.0423 24.799C19.0365 25.1413 18.8346 25.2435 18.5615 25.341C18.5307 25.3517 18.4975 25.3539 18.4654 25.3476C18.1529 25.2876 17.9038 25.1788 17.8962 24.7999C17.874 23.7299 17.9029 22.5839 17.8875 21.4961C17.6231 21.4858 17.2462 21.5064 17.001 21.4961C16.6606 21.4745 16.424 21.2635 16.4385 20.9494C16.4529 20.6352 16.625 20.4092 17.0067 20.4036C17.9087 20.3904 19.026 20.3904 19.9279 20.4036C20.3125 20.4092 20.4837 20.6361 20.4952 20.9494C20.5067 21.2626 20.274 21.4745 19.9346 21.4961C19.6923 21.5064 19.3163 21.4858 19.051 21.4961ZM23.8971 25.2895C23.7818 25.3407 23.6565 25.3672 23.5298 25.3673C23.2894 25.3673 23.1058 25.2735 23.049 25.1188L22.7606 24.3892H21.0048L20.7163 25.1188C20.6606 25.2716 20.4769 25.3673 20.2356 25.3673C20.1091 25.3673 19.9842 25.3408 19.8692 25.2895C19.7096 25.2182 19.5567 25.0213 19.7317 24.4905L21.1154 20.9475C21.1734 20.7914 21.2773 20.6555 21.4142 20.5568C21.551 20.458 21.7146 20.4008 21.8846 20.3923C22.0545 20.4017 22.2178 20.4594 22.3545 20.5582C22.4912 20.657 22.5952 20.7927 22.6538 20.9484L24.0327 24.4895C24.2087 25.0213 24.0558 25.2219 23.8971 25.2895ZM26.8125 25.2895H24.9615C24.8182 25.2922 24.6796 25.2395 24.5759 25.1429C24.4723 25.0462 24.4122 24.9135 24.4087 24.7737V20.955C24.4148 20.8067 24.4795 20.6664 24.5893 20.5636C24.6991 20.4608 24.8454 20.4033 24.9976 20.4033C25.1498 20.4033 25.2961 20.4608 25.4059 20.5636C25.5157 20.6664 25.5804 20.8067 25.5865 20.955V24.2607H26.8125C26.8846 24.2565 26.9569 24.2667 27.0248 24.2907C27.0928 24.3147 27.155 24.352 27.2076 24.4003C27.2602 24.4486 27.3021 24.5069 27.3308 24.5716C27.3594 24.6363 27.3742 24.706 27.3742 24.7765C27.3742 24.847 27.3594 24.9167 27.3308 24.9814C27.3021 25.0461 27.2602 25.1044 27.2076 25.1527C27.155 25.201 27.0928 25.2383 27.0248 25.2623C26.9569 25.2863 26.8846 25.2965 26.8125 25.2923V25.2895ZM31.3317 24.8656C31.3167 24.9766 31.2681 25.0807 31.1921 25.1646C31.1161 25.2485 31.0161 25.3084 30.9051 25.3365C30.794 25.3647 30.6768 25.36 30.5685 25.3229C30.4602 25.2857 30.3657 25.2179 30.2971 25.1282L28.9442 23.3811L28.7442 23.5761V24.8037C28.7442 24.9529 28.6834 25.096 28.5753 25.2016C28.4671 25.3071 28.3203 25.3664 28.1673 25.3664C28.0143 25.3664 27.8676 25.3071 27.7594 25.2016C27.6512 25.096 27.5904 24.9529 27.5904 24.8037V20.9587C27.5904 20.8095 27.6512 20.6664 27.7594 20.5609C27.8676 20.4553 28.0143 20.3961 28.1673 20.3961C28.3203 20.3961 28.4671 20.4553 28.5753 20.5609C28.6834 20.6664 28.7442 20.8095 28.7442 20.9587V22.1647L30.3538 20.5949C30.396 20.5542 30.446 20.5222 30.501 20.5006C30.556 20.479 30.6148 20.4684 30.674 20.4692C30.8181 20.4729 30.9557 20.5284 31.0604 20.6249C31.1651 20.7215 31.2295 20.8524 31.2413 20.9925C31.2465 21.055 31.238 21.1179 31.2162 21.1769C31.1945 21.2359 31.1601 21.2898 31.1154 21.3348L29.7981 22.6168L31.2183 24.452C31.3102 24.5711 31.35 24.7208 31.3288 24.8684L31.3317 24.8656Z" fill="#331D1E"/>
</g>
<defs>
<clipPath id="clip0_12600_11577">
<rect width="20" height="18" fill="white" transform="translate(14 15)"/>
</clipPath>
</defs>
</svg>
