<svg width="40" height="40" viewBox="0 0 40 40" fill="none" xmlns="http://www.w3.org/2000/svg">
<path d="M14.9993 19.9999C14.9993 22.3011 13.1339 24.1666 10.8327 24.1666C8.5315 24.1666 6.66602 22.3011 6.66602 19.9999C6.66602 17.6988 8.5315 15.8333 10.8327 15.8333C13.1339 15.8333 14.9993 17.6988 14.9993 19.9999Z" stroke="black" stroke-width="3.5"/>
<path d="M23.3333 10.8333L15 16.6666" stroke="black" stroke-width="3.5" stroke-linecap="round"/>
<path d="M23.3333 29.1666L15 23.3333" stroke="black" stroke-width="3.5" stroke-linecap="round"/>
<path d="M31.6673 30.8334C31.6673 33.1346 29.8018 35.0001 27.5007 35.0001C25.1995 35.0001 23.334 33.1346 23.334 30.8334C23.334 28.5322 25.1995 26.6667 27.5007 26.6667C29.8018 26.6667 31.6673 28.5322 31.6673 30.8334Z" stroke="black" stroke-width="3.5"/>
<path d="M31.6673 9.16667C31.6673 11.4678 29.8018 13.3333 27.5007 13.3333C25.1995 13.3333 23.334 11.4678 23.334 9.16667C23.334 6.86548 25.1995 5 27.5007 5C29.8018 5 31.6673 6.86548 31.6673 9.16667Z" stroke="black" stroke-width="3.5"/>
</svg>
