<svg width="50" height="50" viewBox="0 0 50 50" fill="none" xmlns="http://www.w3.org/2000/svg">
<rect width="50" height="50" rx="25" fill="#0B3B2D"/>
<path d="M20.168 19.8945V26.7866C20.168 27.5483 19.9849 28.2197 19.6187 28.8008C19.2573 29.3818 18.7446 29.8359 18.0806 30.1631C17.4165 30.4854 16.6499 30.6465 15.7808 30.6465C14.9067 30.6465 14.1401 30.4854 13.481 30.1631C12.8218 29.8359 12.3091 29.3818 11.9429 28.8008C11.5815 28.2197 11.4009 27.5483 11.4009 26.7866V19.8945H13.5981V26.6035C13.5981 27.0039 13.6885 27.3652 13.8691 27.6875C14.0498 28.0049 14.3062 28.2563 14.6382 28.4419C14.9702 28.6226 15.3511 28.7129 15.7808 28.7129C16.2153 28.7129 16.5986 28.6226 16.9307 28.4419C17.2627 28.2563 17.5166 28.0049 17.6924 27.6875C17.873 27.3652 17.9634 27.0039 17.9634 26.6035V19.8945H20.168ZM21.9624 19.8945H26.1079C26.9087 19.8945 27.5923 20.0361 28.1587 20.3193C28.73 20.5977 29.1646 20.998 29.4624 21.5205C29.7603 22.043 29.9092 22.6533 29.9092 23.3516C29.9092 24.0449 29.7578 24.6479 29.4551 25.1606C29.1572 25.6685 28.7178 26.0591 28.1367 26.3325C27.5557 26.6011 26.8623 26.7354 26.0566 26.7354H23.2515V24.9409H25.7124C26.1519 24.9409 26.5132 24.8823 26.7964 24.7651C27.0796 24.6431 27.292 24.4648 27.4336 24.2305C27.5752 23.9961 27.646 23.7031 27.646 23.3516C27.646 22.9902 27.5752 22.6875 27.4336 22.4434C27.292 22.1992 27.0771 22.0161 26.7891 21.894C26.501 21.7671 26.1396 21.7036 25.7051 21.7036H24.1597V30.5H21.9624V19.8945ZM30.29 30.5H27.8438L25.2729 25.6807H27.6533L30.29 30.5ZM31.4399 19.8945H33.6372V28.6836H38.2002V30.5H31.4399V19.8945Z" fill="white"/>
</svg>
