<svg width="20" height="20" viewBox="0 0 20 20" fill="none" xmlns="http://www.w3.org/2000/svg">
<path d="M9.99758 6.99872C8.345 6.99872 6.99636 8.34738 6.99636 10C6.99636 11.6526 8.345 13.0013 9.99758 13.0013C11.6502 13.0013 12.9988 11.6526 12.9988 10C12.9988 8.34738 11.6502 6.99872 9.99758 6.99872ZM18.999 10C18.999 8.75716 19.0103 7.52558 18.9405 6.28499C18.8707 4.84402 18.5419 3.56515 17.4883 2.51144C16.4323 1.45548 15.1557 1.12901 13.7148 1.05921C12.472 0.989412 11.2404 1.00067 9.99983 1.00067C8.75702 1.00067 7.52546 0.989412 6.28489 1.05921C4.84395 1.12901 3.5651 1.45773 2.51141 2.51144C1.45547 3.5674 1.129 4.84402 1.05921 6.28499C0.989412 7.52783 1.00067 8.75941 1.00067 10C1.00067 11.2406 0.989412 12.4744 1.05921 13.715C1.129 15.156 1.45772 16.4348 2.51141 17.4886C3.56736 18.5445 4.84395 18.871 6.28489 18.9408C7.52771 19.0106 8.75927 18.9993 9.99983 18.9993C11.2426 18.9993 12.4742 19.0106 13.7148 18.9408C15.1557 18.871 16.4346 18.5423 17.4883 17.4886C18.5442 16.4326 18.8707 15.156 18.9405 13.715C19.0125 12.4744 18.999 11.2428 18.999 10V10ZM9.99758 14.6179C7.44215 14.6179 5.3798 12.5555 5.3798 10C5.3798 7.44452 7.44215 5.38213 9.99758 5.38213C12.553 5.38213 14.6154 7.44452 14.6154 10C14.6154 12.5555 12.553 14.6179 9.99758 14.6179ZM14.8045 6.27148C14.2078 6.27148 13.726 5.78966 13.726 5.193C13.726 4.59635 14.2078 4.11452 14.8045 4.11452C15.4011 4.11452 15.8829 4.59635 15.8829 5.193C15.8831 5.33468 15.8554 5.475 15.8012 5.60593C15.7471 5.73686 15.6677 5.85582 15.5675 5.956C15.4673 6.05618 15.3483 6.13561 15.2174 6.18975C15.0865 6.24388 14.9462 6.27166 14.8045 6.27148V6.27148Z" fill="white"/>
</svg>
