<svg width="376" height="213" viewBox="0 0 376 213" fill="none" xmlns="http://www.w3.org/2000/svg">
<path d="M369.102 187.375C372.766 187.375 375.728 184.454 375.728 180.851C375.728 177.248 372.766 174.327 369.102 174.327C365.444 174.327 362.479 177.248 362.479 180.851C362.479 184.454 365.444 187.375 369.102 187.375Z" fill="white"/>
<path d="M20.3433 212.175C17.3965 212.175 14.6806 211.721 12.1954 210.812C9.74563 209.868 7.59757 208.54 5.75153 206.827C3.94083 205.115 2.52092 203.105 1.4911 200.798C0.497152 198.491 0 195.957 0 193.196C0 190.435 0.497152 187.901 1.4911 185.594C2.52092 183.287 3.95876 181.277 5.8048 179.565C7.65083 177.852 9.81683 176.541 12.3019 175.632C14.7871 174.689 17.5209 174.217 20.5031 174.217C23.8049 174.217 26.7694 174.759 29.3967 175.842C32.0595 176.926 34.2961 178.498 36.1068 180.561L30.5684 185.594C29.2191 184.196 27.7458 183.165 26.1481 182.501C24.5505 181.802 22.811 181.452 20.9293 181.452C19.1186 181.452 17.4677 181.731 15.9766 182.291C14.4855 182.85 13.1893 183.654 12.0888 184.702C11.0238 185.751 10.1895 186.992 9.58582 188.425C9.01801 189.858 8.73374 191.448 8.73374 193.196C8.73374 194.909 9.01801 196.481 9.58582 197.915C10.1895 199.348 11.0238 200.606 12.0888 201.689C13.1893 202.738 14.4675 203.542 15.9233 204.101C17.4144 204.66 19.0474 204.94 20.8227 204.94C22.5269 204.94 24.1778 204.678 25.7755 204.154C27.4084 203.594 28.9885 202.668 30.5151 201.375L35.4145 207.509C33.391 209.012 31.0298 210.165 28.3317 210.969C25.6689 211.773 23.0061 212.175 20.3433 212.175ZM27.5329 206.408V192.619H35.4145V207.509L27.5329 206.408ZM40.7126 211.546V172.644H49.0202V211.546H40.7126ZM68.2337 211.965C65.1803 211.965 62.4644 211.336 60.0857 210.078C57.7425 208.82 55.8786 207.107 54.494 204.94C53.1447 202.738 52.4702 200.239 52.4702 197.443C52.4702 194.612 53.1447 192.113 54.494 189.945C55.8786 187.743 57.7425 186.031 60.0857 184.807C62.4644 183.549 65.1803 182.92 68.2337 182.92C71.2514 182.92 73.9499 183.549 76.3288 184.807C78.7077 186.031 80.5702 187.726 81.92 189.893C83.2698 192.06 83.9437 194.577 83.9437 197.443C83.9437 200.239 83.2698 202.738 81.92 204.94C80.5702 207.107 78.7077 208.82 76.3288 210.078C73.9499 211.336 71.2514 211.965 68.2337 211.965ZM68.2337 205.255C69.6184 205.255 70.8612 204.94 71.9616 204.311C73.0621 203.682 73.932 202.79 74.5712 201.637C75.2102 200.449 75.5296 199.05 75.5296 197.443C75.5296 195.8 75.2102 194.402 74.5712 193.248C73.932 192.095 73.0621 191.204 71.9616 190.574C70.8612 189.945 69.6184 189.631 68.2337 189.631C66.8491 189.631 65.6064 189.945 64.5059 190.574C63.4055 191.204 62.5177 192.095 61.8431 193.248C61.2041 194.402 60.8845 195.8 60.8845 197.443C60.8845 199.05 61.2041 200.449 61.8431 201.637C62.5177 202.79 63.4055 203.682 64.5059 204.311C65.6064 204.94 66.8491 205.255 68.2337 205.255ZM104.303 211.965C101.781 211.965 99.6157 211.441 97.8058 210.392C95.994 209.344 94.6098 207.753 93.6513 205.622C92.6929 203.454 92.2128 200.728 92.2128 197.443C92.2128 194.122 92.7092 191.396 93.7039 189.264C94.733 187.132 96.1534 185.541 97.9652 184.493C99.7752 183.444 101.888 182.92 104.303 182.92C107.001 182.92 109.414 183.514 111.545 184.702C113.71 185.891 115.415 187.568 116.657 189.736C117.935 191.903 118.574 194.472 118.574 197.443C118.574 200.379 117.935 202.93 116.657 205.097C115.415 207.264 113.71 208.959 111.545 210.183C109.414 211.371 107.001 211.965 104.303 211.965ZM87.3662 211.546V172.644H95.6751V189.054L95.1424 197.39L95.3019 205.779V211.546H87.3662ZM102.864 205.255C104.248 205.255 105.473 204.94 106.539 204.311C107.64 203.682 108.51 202.79 109.148 201.637C109.823 200.449 110.16 199.05 110.16 197.443C110.16 195.8 109.823 194.402 109.148 193.248C108.51 192.095 107.64 191.204 106.539 190.574C105.473 189.945 104.248 189.631 102.864 189.631C101.48 189.631 100.237 189.945 99.1356 190.574C98.0359 191.204 97.1662 192.095 96.5266 193.248C95.8871 194.402 95.5682 195.8 95.5682 197.443C95.5682 199.05 95.8871 200.449 96.5266 201.637C97.1662 202.79 98.0359 203.682 99.1356 204.311C100.237 204.94 101.48 205.255 102.864 205.255ZM139.111 211.546V206.041L138.578 204.835V194.979C138.578 193.231 138.029 191.868 136.928 190.889C135.862 189.911 134.212 189.421 131.976 189.421C130.449 189.421 128.94 189.666 127.448 190.155C125.994 190.609 124.751 191.239 123.722 192.043L120.739 186.328C122.301 185.244 124.182 184.406 126.383 183.811C128.584 183.217 130.822 182.92 133.094 182.92C137.46 182.92 140.852 183.934 143.265 185.961C145.681 187.988 146.887 191.151 146.887 195.45V211.546H139.111ZM130.378 211.965C128.141 211.965 126.224 211.598 124.626 210.864C123.03 210.096 121.805 209.064 120.951 207.771C120.1 206.478 119.674 205.027 119.674 203.42C119.674 201.742 120.082 200.274 120.899 199.015C121.75 197.757 123.082 196.779 124.892 196.079C126.704 195.345 129.065 194.979 131.976 194.979H139.591V199.75H132.88C130.927 199.75 129.579 200.064 128.833 200.693C128.122 201.322 127.769 202.109 127.769 203.052C127.769 204.101 128.177 204.94 128.994 205.569C129.845 206.163 131 206.46 132.454 206.46C133.839 206.46 135.082 206.146 136.183 205.517C137.283 204.853 138.082 203.891 138.578 202.633L139.857 206.408C139.254 208.225 138.153 209.606 136.556 210.55C134.958 211.493 132.898 211.965 130.378 211.965ZM152.275 211.546V172.644H160.583V211.546H152.275ZM166.75 211.546V174.846H173.885L195.88 201.27H192.418V174.846H200.938V211.546H193.856L171.808 185.122H175.271V211.546H166.75ZM220.676 211.965C217.621 211.965 214.905 211.336 212.528 210.078C210.186 208.82 208.321 207.107 206.937 204.94C205.586 202.738 204.913 200.239 204.913 197.443C204.913 194.612 205.586 192.113 206.937 189.945C208.321 187.743 210.186 186.031 212.528 184.807C214.905 183.549 217.621 182.92 220.676 182.92C223.693 182.92 226.394 183.549 228.771 184.807C231.148 186.031 233.013 187.726 234.362 189.893C235.712 192.06 236.386 194.577 236.386 197.443C236.386 200.239 235.712 202.738 234.362 204.94C233.013 207.107 231.148 208.82 228.771 210.078C226.394 211.336 223.693 211.965 220.676 211.965ZM220.676 205.255C222.06 205.255 223.305 204.94 224.405 204.311C225.503 203.682 226.374 202.79 227.014 201.637C227.653 200.449 227.972 199.05 227.972 197.443C227.972 195.8 227.653 194.402 227.014 193.248C226.374 192.095 225.503 191.204 224.405 190.574C223.305 189.945 222.06 189.631 220.676 189.631C219.292 189.631 218.047 189.945 216.947 190.574C215.849 191.204 214.96 192.095 214.286 193.248C213.646 194.402 213.327 195.8 213.327 197.443C213.327 199.05 213.646 200.449 214.286 201.637C214.96 202.79 215.849 203.682 216.947 204.311C218.047 204.94 219.292 205.255 220.676 205.255ZM276.503 182.92C278.775 182.92 280.779 183.374 282.522 184.283C284.293 185.157 285.678 186.52 286.674 188.373C287.701 190.19 288.22 192.532 288.22 195.398V211.546H279.911V196.656C279.911 194.384 279.432 192.706 278.474 191.623C277.516 190.54 276.164 189.998 274.426 189.998C273.216 189.998 272.136 190.278 271.178 190.837C270.219 191.361 269.473 192.165 268.94 193.248C268.408 194.332 268.141 195.713 268.141 197.39V211.546H259.834V196.656C259.834 194.384 259.354 192.706 258.396 191.623C257.472 190.54 256.14 189.998 254.403 189.998C253.192 189.998 252.112 190.278 251.154 190.837C250.196 191.361 249.449 192.165 248.916 193.248C248.384 194.332 248.117 195.713 248.117 197.39V211.546H239.81V183.339H247.746V191.046L246.255 188.792C247.248 186.87 248.65 185.419 250.462 184.44C252.306 183.427 254.403 182.92 256.745 182.92C259.37 182.92 261.661 183.584 263.615 184.912C265.601 186.205 266.917 188.198 267.556 190.889L264.626 190.103C265.585 187.901 267.112 186.153 269.207 184.86C271.337 183.566 273.769 182.92 276.503 182.92ZM311.11 211.546V206.041L310.577 204.835V194.979C310.577 193.231 310.026 191.868 308.927 190.889C307.861 189.911 306.211 189.421 303.973 189.421C302.444 189.421 300.938 189.666 299.447 190.155C297.991 190.609 296.746 191.239 295.719 192.043L292.736 186.328C294.296 185.244 296.179 184.406 298.382 183.811C300.58 183.217 302.817 182.92 305.091 182.92C309.459 182.92 312.847 183.934 315.262 185.961C317.676 187.988 318.884 191.151 318.884 195.45V211.546H311.11ZM302.375 211.965C300.139 211.965 298.223 211.598 296.625 210.864C295.027 210.096 293.802 209.064 292.95 207.771C292.097 206.478 291.671 205.027 291.671 203.42C291.671 201.742 292.079 200.274 292.896 199.015C293.747 197.757 295.079 196.779 296.891 196.079C298.701 195.345 301.06 194.979 303.973 194.979H311.588V199.75H304.879C302.924 199.75 301.576 200.064 300.831 200.693C300.119 201.322 299.766 202.109 299.766 203.052C299.766 204.101 300.174 204.94 300.991 205.569C301.842 206.163 302.997 206.46 304.453 206.46C305.837 206.46 307.077 206.146 308.18 205.517C309.28 204.853 310.079 203.891 310.577 202.633L311.854 206.408C311.251 208.225 310.151 209.606 308.553 210.55C306.955 211.493 304.894 211.965 302.375 211.965ZM336.781 211.965C334.083 211.965 331.654 211.371 329.485 210.183C327.322 208.959 325.599 207.264 324.32 205.097C323.078 202.93 322.455 200.379 322.455 197.443C322.455 194.472 323.078 191.903 324.32 189.736C325.599 187.568 327.322 185.891 329.485 184.702C331.654 183.514 334.083 182.92 336.781 182.92C339.196 182.92 341.309 183.444 343.119 184.493C344.929 185.541 346.333 187.132 347.326 189.264C348.322 191.396 348.817 194.122 348.817 197.443C348.817 200.728 348.339 203.454 347.378 205.622C346.42 207.753 345.036 209.344 343.226 210.392C341.452 211.441 339.303 211.965 336.781 211.965ZM338.22 205.255C339.569 205.255 340.794 204.94 341.894 204.311C342.997 203.682 343.865 202.79 344.503 201.637C345.181 200.449 345.516 199.05 345.516 197.443C345.516 195.8 345.181 194.402 344.503 193.248C343.865 192.095 342.997 191.204 341.894 190.574C340.794 189.945 339.569 189.631 338.22 189.631C336.835 189.631 335.594 189.945 334.491 190.574C333.391 191.204 332.505 192.095 331.829 193.248C331.19 194.402 330.871 195.8 330.871 197.443C330.871 199.05 331.19 200.449 331.829 201.637C332.505 202.79 333.391 203.682 334.491 204.311C335.594 204.94 336.835 205.255 338.22 205.255ZM345.728 211.546V205.779L345.887 197.39L345.356 189.054V172.644H353.663V211.546H345.728Z" fill="white"/>
<path fill-rule="evenodd" clip-rule="evenodd" d="M188.186 0C227.021 0 258.502 31.0631 258.502 69.3813C258.502 107.699 227.021 138.763 188.186 138.763C149.352 138.763 117.871 107.699 117.871 69.3813C117.871 31.0631 149.352 0 188.186 0ZM185.645 5.19175C177.623 6.30568 169.985 12.6658 164.055 23.3031C162.335 26.3886 160.784 29.7974 159.431 33.4782C167.494 31.4788 176.35 30.3003 185.645 30.118V5.19175ZM153.488 35.1445C155.17 29.9366 157.227 25.1452 159.602 20.886C162.541 15.6128 166.029 11.0592 169.959 7.56176C148.587 13.6862 131.741 30.3085 125.534 51.3967C129.079 47.5185 133.694 44.0765 139.038 41.1764C143.354 38.8338 148.21 36.8035 153.488 35.1445ZM151.799 41.008C149.774 48.9634 148.579 57.7024 148.394 66.8734H123.132C124.261 58.9581 130.707 51.4214 141.488 45.5712C144.615 43.8739 148.069 42.3426 151.799 41.008ZM153.479 66.8734C153.689 56.8649 155.149 47.4685 157.565 39.1665C165.979 36.7826 175.502 35.3416 185.645 35.1344V45.968C181.861 55.5263 174.143 63.1413 164.455 66.8734H153.479ZM148.394 71.8892H123.132C124.261 79.8045 130.707 87.3409 141.488 93.1914C144.615 94.8886 148.069 96.4196 151.799 97.7545C149.774 89.7991 148.579 81.0602 148.394 71.8892ZM157.565 99.5964C155.149 91.294 153.689 81.8977 153.479 71.8892H164.455C174.143 75.6213 181.861 83.2363 185.645 92.7948V103.629C175.502 103.421 165.979 101.98 157.565 99.5964ZM153.488 103.618C148.21 101.959 143.354 99.9288 139.038 97.5865C133.694 94.6863 129.079 91.2438 125.534 87.3658C131.741 108.454 148.587 125.076 169.959 131.201C166.029 127.703 162.541 123.15 159.602 117.876C157.227 113.617 155.17 108.826 153.488 103.618ZM185.645 133.571C177.623 132.457 169.985 126.097 164.055 115.459C162.335 112.374 160.784 108.965 159.431 105.284C167.494 107.284 176.35 108.462 185.645 108.645V133.571ZM206.413 131.201C210.343 127.703 213.832 123.15 216.771 117.876C219.145 113.617 221.203 108.826 222.885 103.618C228.163 101.959 233.018 99.9288 237.335 97.5865C242.679 94.6863 247.294 91.2438 250.838 87.3658C244.632 108.454 227.786 125.076 206.413 131.201ZM216.942 105.284C215.589 108.965 214.037 112.374 212.317 115.459C206.389 126.097 198.75 132.457 190.728 133.571V108.645C200.023 108.462 208.879 107.284 216.942 105.284ZM224.573 97.7545C228.303 96.4196 231.758 94.8886 234.885 93.1914C245.666 87.3409 252.112 79.8045 253.24 71.8892H227.979C227.794 81.0602 226.6 89.7991 224.573 97.7545ZM222.895 71.8892C222.685 81.8977 221.224 91.294 218.809 99.5964C210.394 101.98 200.871 103.421 190.728 103.629V92.8029C194.511 83.2406 202.23 75.6225 211.921 71.8892H222.895ZM227.979 66.8734H253.24C252.112 58.9581 245.666 51.4214 234.885 45.5712C231.758 43.8739 228.303 42.3426 224.573 41.008C226.6 48.9634 227.794 57.7024 227.979 66.8734ZM218.809 39.1665C221.224 47.4685 222.685 56.8649 222.895 66.8734H211.921C202.23 63.1401 194.511 55.522 190.728 45.96V35.1344C200.871 35.3416 210.394 36.7826 218.809 39.1665ZM222.885 35.1445C228.163 36.8035 233.018 38.8338 237.335 41.1764C242.679 44.0765 247.294 47.5185 250.838 51.3967C244.632 30.3085 227.786 13.6862 206.413 7.56176C210.343 11.0592 213.832 15.6128 216.771 20.886C219.145 25.1452 221.203 29.9366 222.885 35.1445ZM190.728 5.19175C198.75 6.30568 206.389 12.6658 212.317 23.3031C214.037 26.3886 215.589 29.7974 216.942 33.4782C208.879 31.4788 200.023 30.3003 190.728 30.118V5.19175Z" fill="white"/>
</svg>
