<svg width="147" height="25" viewBox="0 0 147 25" fill="none" xmlns="http://www.w3.org/2000/svg">
<g clip-path="url(#clip0_32_653)">
<path d="M144.749 10.7345C145.866 10.7345 146.77 9.8238 146.77 8.70052C146.77 7.57724 145.866 6.66669 144.749 6.66669C143.633 6.66669 142.729 7.57724 142.729 8.70052C142.729 9.8238 143.633 10.7345 144.749 10.7345Z" fill="white"/>
<path d="M38.3706 18.4654C37.4718 18.4654 36.6434 18.3238 35.8853 18.0404C35.1381 17.7462 34.4829 17.332 33.9199 16.7981C33.3676 16.2642 32.9345 15.6375 32.6203 14.9183C32.3172 14.199 32.1655 13.4089 32.1655 12.5481C32.1655 11.6872 32.3172 10.8971 32.6203 10.1779C32.9345 9.45866 33.373 8.83205 33.9361 8.2981C34.4992 7.7641 35.1599 7.35549 35.9178 7.0721C36.6759 6.77788 37.5098 6.63077 38.4194 6.63077C39.4265 6.63077 40.3307 6.79971 41.1321 7.13749C41.9443 7.47533 42.6265 7.96571 43.1788 8.60866L41.4895 10.1779C41.0779 9.74205 40.6285 9.42055 40.1412 9.21349C39.6539 8.99555 39.1233 8.88655 38.5494 8.88655C37.9971 8.88655 37.4935 8.97371 37.0387 9.1481C36.5839 9.32244 36.1885 9.5731 35.8529 9.89999C35.528 10.2269 35.2735 10.6138 35.0894 11.0606C34.9162 11.5074 34.8295 12.0032 34.8295 12.5481C34.8295 13.082 34.9162 13.5724 35.0894 14.0193C35.2735 14.466 35.528 14.8584 35.8529 15.1962C36.1885 15.5231 36.5784 15.7738 37.0224 15.9481C37.4773 16.1224 37.9753 16.2097 38.5169 16.2097C39.0367 16.2097 39.5402 16.1279 40.0275 15.9644C40.5256 15.7901 41.0076 15.5013 41.4732 15.0981L42.9677 17.0106C42.3504 17.4792 41.6302 17.8388 40.8072 18.0894C39.995 18.3401 39.1828 18.4654 38.3706 18.4654ZM40.5636 16.6673V12.3683H42.9677V17.0106L40.5636 16.6673ZM44.5837 18.2693V6.14038H47.1176V18.2693H44.5837ZM52.9781 18.4C52.0468 18.4 51.2184 18.2039 50.4928 17.8115C49.7781 17.4193 49.2096 16.8853 48.7873 16.2097C48.3757 15.5231 48.17 14.7439 48.17 13.8722C48.17 12.9894 48.3757 12.2103 48.7873 11.5347C49.2096 10.8481 49.7781 10.3142 50.4928 9.93271C51.2184 9.54038 52.0468 9.34427 52.9781 9.34427C53.8986 9.34427 54.7217 9.54038 55.4473 9.93271C56.1729 10.3142 56.741 10.8426 57.1527 11.5183C57.5644 12.1939 57.77 12.9785 57.77 13.8722C57.77 14.7439 57.5644 15.5231 57.1527 16.2097C56.741 16.8853 56.1729 17.4193 55.4473 17.8115C54.7217 18.2039 53.8986 18.4 52.9781 18.4ZM52.9781 16.3077C53.4005 16.3077 53.7796 16.2096 54.1152 16.0135C54.4509 15.8173 54.7162 15.5394 54.9112 15.1798C55.1061 14.8093 55.2035 14.3734 55.2035 13.8722C55.2035 13.3599 55.1061 12.924 54.9112 12.5644C54.7162 12.2048 54.4509 11.9269 54.1152 11.7308C53.7796 11.5346 53.4005 11.4365 52.9781 11.4365C52.5558 11.4365 52.1768 11.5346 51.8411 11.7308C51.5054 11.9269 51.2346 12.2048 51.0289 12.5644C50.834 12.924 50.7365 13.3599 50.7365 13.8722C50.7365 14.3734 50.834 14.8093 51.0289 15.1798C51.2346 15.5394 51.5054 15.8173 51.8411 16.0135C52.1768 16.2096 52.5558 16.3077 52.9781 16.3077ZM63.9799 18.4C63.2107 18.4 62.5503 18.2365 61.9982 17.9096C61.4456 17.5827 61.0233 17.0868 60.731 16.4222C60.4387 15.7464 60.2922 14.8964 60.2922 13.8722C60.2922 12.8368 60.4436 11.9868 60.747 11.3221C61.0609 10.6574 61.4942 10.1615 62.0468 9.8346C62.5989 9.50771 63.2433 9.34427 63.9799 9.34427C64.8028 9.34427 65.5389 9.52949 66.1888 9.89999C66.8492 10.2705 67.3692 10.7935 67.7483 11.4693C68.1379 12.1449 68.333 12.9459 68.333 13.8722C68.333 14.7875 68.1379 15.583 67.7483 16.2587C67.3692 16.9343 66.8492 17.4628 66.1888 17.8443C65.5389 18.2147 64.8028 18.4 63.9799 18.4ZM58.8139 18.2693V6.14038H61.3483V11.2568L61.1858 13.8558L61.2344 16.4712V18.2693H58.8139ZM63.5411 16.3077C63.9633 16.3077 64.3369 16.2096 64.6619 16.0135C64.9979 15.8173 65.2631 15.5394 65.4577 15.1798C65.6638 14.8093 65.7666 14.3734 65.7666 13.8722C65.7666 13.3599 65.6638 12.924 65.4577 12.5644C65.2631 12.2048 64.9979 11.9269 64.6619 11.7308C64.3369 11.5346 63.9633 11.4365 63.5411 11.4365C63.1189 11.4365 62.7398 11.5346 62.4038 11.7308C62.0684 11.9269 61.8031 12.2048 61.608 12.5644C61.4129 12.924 61.3157 13.3599 61.3157 13.8722C61.3157 14.3734 61.4129 14.8093 61.608 15.1798C61.8031 15.5394 62.0684 15.8173 62.4038 16.0135C62.7398 16.2096 63.1189 16.3077 63.5411 16.3077ZM74.5971 18.2693V16.5529L74.4346 16.1769V13.1039C74.4346 12.5589 74.2672 12.1339 73.9312 11.8289C73.6062 11.5238 73.1028 11.3712 72.4208 11.3712C71.9549 11.3712 71.4946 11.4474 71.0398 11.6C70.596 11.7417 70.2169 11.9378 69.903 12.1885L68.9934 10.4068C69.4698 10.0689 70.0434 9.80744 70.7148 9.6221C71.3863 9.43688 72.0688 9.34427 72.7618 9.34427C74.0936 9.34427 75.1282 9.66033 75.8643 10.2923C76.6009 10.9243 76.969 11.9106 76.969 13.251V18.2693H74.5971ZM71.9334 18.4C71.2509 18.4 70.6662 18.2856 70.1788 18.0568C69.6919 17.817 69.3183 17.4955 69.0581 17.0923C68.7983 16.6892 68.6684 16.2368 68.6684 15.7356C68.6684 15.2125 68.7928 14.7548 69.042 14.3625C69.3018 13.9702 69.7079 13.6651 70.26 13.4471C70.8127 13.2183 71.5327 13.1039 72.4208 13.1039H74.7435V14.5914H72.6966C72.1008 14.5914 71.6897 14.6894 71.462 14.8856C71.2454 15.0818 71.1376 15.3269 71.1376 15.6212C71.1376 15.9481 71.2619 16.2097 71.5112 16.4058C71.7709 16.591 72.123 16.6837 72.5667 16.6837C72.9889 16.6837 73.368 16.5856 73.704 16.3894C74.0395 16.1824 74.2832 15.8827 74.4346 15.4904L74.8248 16.6673C74.6407 17.2339 74.3047 17.6644 73.8179 17.9587C73.3304 18.2529 72.7021 18.4 71.9334 18.4ZM78.6125 18.2693V6.14038H81.1463V18.2693H78.6125ZM83.0275 18.2693V6.82694H85.2037L91.9127 15.0654H90.8566V6.82694H93.4556V18.2693H91.2954L84.5704 10.0308H85.6265V18.2693H83.0275ZM99.476 18.4C98.5443 18.4 97.7159 18.2039 96.9908 17.8115C96.2763 17.4193 95.7076 16.8853 95.2854 16.2097C94.8731 15.5231 94.6681 14.7439 94.6681 13.8722C94.6681 12.9894 94.8731 12.2103 95.2854 11.5347C95.7076 10.8481 96.2763 10.3142 96.9908 9.93271C97.7159 9.54038 98.5443 9.34427 99.476 9.34427C100.396 9.34427 101.22 9.54038 101.945 9.93271C102.67 10.3142 103.239 10.8426 103.651 11.5183C104.062 12.1939 104.268 12.9785 104.268 13.8722C104.268 14.7439 104.062 15.5231 103.651 16.2097C103.239 16.8853 102.67 17.4193 101.945 17.8115C101.22 18.2039 100.396 18.4 99.476 18.4ZM99.476 16.3077C99.8982 16.3077 100.278 16.2096 100.613 16.0135C100.948 15.8173 101.214 15.5394 101.409 15.1798C101.604 14.8093 101.701 14.3734 101.701 13.8722C101.701 13.3599 101.604 12.924 101.409 12.5644C101.214 12.2048 100.948 11.9269 100.613 11.7308C100.278 11.5346 99.8982 11.4365 99.476 11.4365C99.0538 11.4365 98.6741 11.5346 98.3387 11.7308C98.0038 11.9269 97.7325 12.2048 97.5269 12.5644C97.3318 12.924 97.2345 13.3599 97.2345 13.8722C97.2345 14.3734 97.3318 14.8093 97.5269 15.1798C97.7325 15.5394 98.0038 15.8173 98.3387 16.0135C98.6741 16.2096 99.0538 16.3077 99.476 16.3077ZM116.504 9.34427C117.197 9.34427 117.808 9.48594 118.34 9.76927C118.881 10.0417 119.303 10.4667 119.607 11.0443C119.92 11.6109 120.078 12.341 120.078 13.2346V18.2693H117.544V13.6269C117.544 12.9185 117.398 12.3955 117.105 12.0577C116.813 11.7199 116.401 11.551 115.871 11.551C115.502 11.551 115.172 11.6382 114.88 11.8125C114.588 11.976 114.36 12.2267 114.198 12.5644C114.035 12.9022 113.954 13.3327 113.954 13.8558V18.2693H111.42V13.6269C111.42 12.9185 111.274 12.3955 110.981 12.0577C110.699 11.7199 110.293 11.551 109.763 11.551C109.394 11.551 109.065 11.6382 108.772 11.8125C108.48 11.976 108.252 12.2267 108.09 12.5644C107.927 12.9022 107.846 13.3327 107.846 13.8558V18.2693H105.312V9.47499H107.733V11.8779L107.278 11.175C107.581 10.5757 108.009 10.1234 108.561 9.81827C109.124 9.50227 109.763 9.34427 110.478 9.34427C111.279 9.34427 111.977 9.55127 112.573 9.96538C113.179 10.3685 113.58 10.9897 113.775 11.8289L112.882 11.5837C113.174 10.8971 113.64 10.3522 114.279 9.94905C114.929 9.54583 115.67 9.34427 116.504 9.34427ZM127.06 18.2693V16.5529L126.898 16.1769V13.1039C126.898 12.5589 126.73 12.1339 126.394 11.8289C126.069 11.5238 125.566 11.3712 124.883 11.3712C124.417 11.3712 123.958 11.4474 123.503 11.6C123.058 11.7417 122.679 11.9378 122.365 12.1885L121.456 10.4068C121.932 10.0689 122.506 9.80744 123.178 9.6221C123.848 9.43688 124.531 9.34427 125.224 9.34427C126.557 9.34427 127.59 9.66033 128.327 10.2923C129.063 10.9243 129.431 11.9106 129.431 13.251V18.2693H127.06ZM124.396 18.4C123.714 18.4 123.129 18.2856 122.642 18.0568C122.154 17.817 121.781 17.4955 121.521 17.0923C121.261 16.6892 121.131 16.2368 121.131 15.7356C121.131 15.2125 121.255 14.7548 121.504 14.3625C121.764 13.9702 122.17 13.6651 122.723 13.4471C123.275 13.2183 123.995 13.1039 124.883 13.1039H127.206V14.5914H125.16C124.563 14.5914 124.152 14.6894 123.925 14.8856C123.708 15.0818 123.6 15.3269 123.6 15.6212C123.6 15.9481 123.724 16.2097 123.974 16.4058C124.233 16.591 124.585 16.6837 125.03 16.6837C125.452 16.6837 125.83 16.5856 126.166 16.3894C126.502 16.1824 126.746 15.8827 126.898 15.4904L127.287 16.6673C127.103 17.2339 126.768 17.6644 126.28 17.9587C125.793 18.2529 125.164 18.4 124.396 18.4ZM134.89 18.4C134.067 18.4 133.326 18.2147 132.665 17.8443C132.005 17.4628 131.479 16.9343 131.089 16.2587C130.711 15.583 130.521 14.7875 130.521 13.8722C130.521 12.9459 130.711 12.1449 131.089 11.4693C131.479 10.7935 132.005 10.2705 132.665 9.89999C133.326 9.52949 134.067 9.34427 134.89 9.34427C135.627 9.34427 136.271 9.50771 136.823 9.8346C137.375 10.1615 137.804 10.6574 138.107 11.3221C138.411 11.9868 138.561 12.8368 138.561 13.8722C138.561 14.8964 138.416 15.7464 138.123 16.4222C137.83 17.0868 137.408 17.5827 136.856 17.9096C136.315 18.2365 135.66 18.4 134.89 18.4ZM135.329 16.3077C135.741 16.3077 136.114 16.2096 136.45 16.0135C136.786 15.8173 137.051 15.5394 137.246 15.1798C137.452 14.8093 137.555 14.3734 137.555 13.8722C137.555 13.3599 137.452 12.924 137.246 12.5644C137.051 12.2048 136.786 11.9269 136.45 11.7308C136.114 11.5346 135.741 11.4365 135.329 11.4365C134.907 11.4365 134.528 11.5346 134.192 11.7308C133.856 11.9269 133.586 12.2048 133.38 12.5644C133.185 12.924 133.088 13.3599 133.088 13.8722C133.088 14.3734 133.185 14.8093 133.38 15.1798C133.586 15.5394 133.856 15.8173 134.192 16.0135C134.528 16.2096 134.907 16.3077 135.329 16.3077ZM137.619 18.2693V16.4712L137.668 13.8558L137.506 11.2568V6.14038H140.04V18.2693H137.619Z" fill="white"/>
<path fill-rule="evenodd" clip-rule="evenodd" d="M12.4217 0C19.2821 0 24.8434 5.59644 24.8434 12.5C24.8434 19.4036 19.2821 25 12.4217 25C5.56141 25 0 19.4036 0 12.5C0 5.59644 5.56141 0 12.4217 0ZM11.9727 0.935367C10.5557 1.13606 9.20635 2.28192 8.15883 4.19838C7.855 4.75427 7.58083 5.36841 7.34193 6.03156C8.76623 5.67133 10.3308 5.45901 11.9727 5.42617V0.935367ZM6.2921 6.33178C6.58919 5.39349 6.9526 4.53025 7.37205 3.76291C7.8913 2.81287 8.50754 1.99247 9.20181 1.36236C5.42631 2.46577 2.45033 5.46049 1.35383 9.25983C1.97999 8.56111 2.79526 7.941 3.73935 7.4185C4.50189 6.99644 5.35971 6.63067 6.2921 6.33178ZM5.99373 7.38817C5.63585 8.82145 5.42484 10.3959 5.3922 12.0482H0.92951C1.12894 10.6221 2.26764 9.26428 4.17209 8.21028C4.7245 7.9045 5.3348 7.62861 5.99373 7.38817ZM6.29038 12.0482C6.32747 10.245 6.58538 8.55211 7.01218 7.05639C8.49859 6.62689 10.181 6.36728 11.9727 6.32994V8.28178C11.3042 10.0038 9.94085 11.3758 8.22946 12.0482H6.29038ZM5.3922 12.9518H0.92951C1.12894 14.3779 2.26764 15.7357 4.17209 16.7897C4.7245 17.0955 5.3348 17.3713 5.99373 17.6118C5.63585 16.1786 5.42484 14.6041 5.3922 12.9518ZM7.01218 17.9437C6.58538 16.4479 6.32747 14.755 6.29038 12.9518H8.22946C9.94085 13.6242 11.3044 14.9962 11.9727 16.7183V18.6701C10.181 18.6328 8.49859 18.3731 7.01218 17.9437ZM6.2921 18.6683C5.35971 18.3693 4.50189 18.0036 3.73935 17.5816C2.79526 17.0591 1.97999 16.4388 1.35383 15.7402C2.45033 19.5395 5.42631 22.5342 9.20181 23.6376C8.50754 23.0075 7.8913 22.1871 7.37205 21.237C6.9526 20.4697 6.58919 19.6066 6.2921 18.6683ZM11.9727 24.0646C10.5557 23.8639 9.20635 22.7181 8.15883 20.8016C7.855 20.2458 7.58083 19.6316 7.34193 18.9684C8.76623 19.3287 10.3308 19.5409 11.9727 19.5738V24.0646ZM15.6416 23.6376C16.3359 23.0075 16.9523 22.1871 17.4714 21.237C17.8908 20.4697 18.2543 19.6066 18.5514 18.6683C19.4838 18.3693 20.3415 18.0036 21.1041 17.5816C22.0482 17.0591 22.8635 16.4388 23.4896 15.7402C22.3931 19.5395 19.4172 22.5342 15.6416 23.6376ZM17.5016 18.9684C17.2626 19.6316 16.9884 20.2458 16.6846 20.8016C15.6373 22.7181 14.2878 23.8639 12.8707 24.0646V19.5738C14.5127 19.5409 16.0773 19.3287 17.5016 18.9684ZM18.8497 17.6118C19.5086 17.3713 20.119 17.0955 20.6714 16.7897C22.5758 15.7357 23.7145 14.3779 23.9139 12.9518H19.4513C19.4186 14.6041 19.2077 16.1786 18.8497 17.6118ZM18.5532 12.9518C18.5161 14.755 18.258 16.4479 17.8313 17.9437C16.3449 18.3731 14.6626 18.6328 12.8707 18.6701V16.7197C13.5389 14.9969 14.9027 13.6244 16.6145 12.9518H18.5532ZM19.4513 12.0482H23.9139C23.7145 10.6221 22.5758 9.26428 20.6714 8.21028C20.119 7.9045 19.5086 7.62861 18.8497 7.38817C19.2077 8.82145 19.4186 10.3959 19.4513 12.0482ZM17.8313 7.05639C18.258 8.55211 18.5161 10.245 18.5532 12.0482H16.6145C14.9027 11.3756 13.5389 10.0031 12.8707 8.28033V6.32994C14.6626 6.36728 16.3449 6.62689 17.8313 7.05639ZM18.5514 6.33178C19.4838 6.63067 20.3415 6.99644 21.1041 7.4185C22.0482 7.941 22.8635 8.56111 23.4896 9.25983C22.3931 5.46049 19.4172 2.46577 15.6416 1.36236C16.3359 1.99247 16.9523 2.81287 17.4714 3.76291C17.8908 4.53025 18.2543 5.39349 18.5514 6.33178ZM12.8707 0.935367C14.2878 1.13606 15.6373 2.28192 16.6846 4.19838C16.9884 4.75428 17.2626 5.36841 17.5016 6.03156C16.0773 5.67133 14.5127 5.45901 12.8707 5.42617V0.935367Z" fill="white"/>
</g>
<defs>
<clipPath id="clip0_32_653">
<rect width="147" height="25" fill="white"/>
</clipPath>
</defs>
</svg>
